<svg width="178" height="84" viewBox="0 0 178 84" fill="none" xmlns="http://www.w3.org/2000/svg">
<path d="M37.5948 61.9615C30.6896 61.9615 25.3189 66.7277 25.3189 72.8558C25.3189 78.9839 30.6896 83.7502 37.5948 83.7502C44.5 83.7502 49.8707 78.9839 49.8707 72.8558C49.8707 66.7277 44.5 61.9615 37.5948 61.9615ZM110.483 0H104.345V13.2774H127.362L110.483 0ZM0.767172 74.8985H16.112C16.112 74.8985 16.8793 54.4716 39.1293 54.4716C55.625 54.4716 58.3103 74.8985 58.3103 74.8985H96.6725V0H0L0.767172 74.8985ZM145.776 61.9615C138.871 61.9615 133.5 66.7277 133.5 72.8558C133.5 78.9839 138.871 83.7502 145.776 83.7502C152.681 83.7502 158.052 78.9839 158.052 72.8558C158.052 66.7277 152.298 61.9615 145.776 61.9615ZM131.198 17.0224H104.345V74.8985H127.362C127.362 74.8985 124.293 57.8761 146.543 57.8761C163.423 57.8761 163.039 74.8985 163.039 74.8985H177.233L178 49.3649L131.198 17.0224ZM127.362 61.2806H112.017V54.4716H127.362V61.2806ZM125.828 49.0245L110.483 40.8537V21.7886H125.828L165.724 49.0245H125.828Z" fill="white" fill-opacity="0.4"/>
</svg>
